<svg width="1200" height="800" xmlns="http://www.w3.org/2000/svg">
    <!-- Background -->
    <rect width="1200" height="800" fill="#FFFFFF"/>
    
    <!-- Header -->
    <rect width="1200" height="80" fill="#7C3AED" opacity="0.1"/>
    <rect x="40" y="25" width="120" height="30" rx="4" fill="#7C3AED"/>
    <text x="100" y="47" font-family="Arial, sans-serif" font-size="16" fill="#FFFFFF" text-anchor="middle" font-weight="bold">LOGO</text>
    
    <!-- Navigation -->
    <rect x="{(1200-300)}" y="30" width="60" height="20" rx="3" fill="#111827" opacity="0.2"/>
    <rect x="{(1200-220)}" y="30" width="60" height="20" rx="3" fill="#111827" opacity="0.2"/>
    <rect x="{(1200-140)}" y="30" width="60" height="20" rx="3" fill="#06B6D4"/>
    
    <!-- Hero Section -->
    <rect x="40" y="120" width="{(1200/2-60)}" height="40" rx="4" fill="#111827" opacity="0.8"/>
    <rect x="40" y="175" width="{(1200/2-100)}" height="20" rx="3" fill="#111827" opacity="0.4"/>
    <rect x="40" y="205" width="{(1200/2-120)}" height="20" rx="3" fill="#111827" opacity="0.4"/>
    <rect x="40" y="250" width="140" height="45" rx="6" fill="#7C3AED"/>
    <rect x="200" y="250" width="140" height="45" rx="6" fill="#06B6D4" opacity="0.3"/>
    
    <!-- Hero Image -->
    <rect x="{(1200/2+20)}" y="120" width="{(1200/2-60)}" height="{(800-220)}" rx="8" fill="#06B6D4" opacity="0.2"/>
    <circle cx="{(1200/2+1200/4)}" cy="{(800/2)}" r="60" fill="#7C3AED" opacity="0.3"/>
    
    <!-- Content Cards -->
    <rect x="40" y="{(800-180)}" width="{(1200/3-60)}" height="140" rx="8" fill="#111827" opacity="0.05"/>
    <rect x="{(1200/3+10)}" y="{(800-180)}" width="{(1200/3-60)}" height="140" rx="8" fill="#111827" opacity="0.05"/>
    <rect x="{(1200*2/3-20)}" y="{(800-180)}" width="{(1200/3-60)}" height="140" rx="8" fill="#111827" opacity="0.05"/>
    
    <!-- Card Icons -->
    <circle cx="110" cy="{(800-150)}" r="20" fill="#7C3AED" opacity="0.2"/>
    <circle cx="{(1200/2)}" cy="{(800-150)}" r="20" fill="#06B6D4" opacity="0.2"/>
    <circle cx="{(1200-110)}" cy="{(800-150)}" r="20" fill="#7C3AED" opacity="0.2"/>
    
    <!-- Theme Name Badge -->
    <rect x="{(1200/2-150)}" y="{(800-40)}" width="300" height="30" rx="15" fill="#7C3AED"/>
    <text x="{(1200/2)}" y="{(800-20)}" font-family="Arial, sans-serif" font-size="14" fill="#FFFFFF" text-anchor="middle" font-weight="bold">Startup Launch</text>
</svg>